<?xml version="1.0" encoding="UTF-8"?>
<svg xmlns="http://www.w3.org/2000/svg" xmlns:xlink="http://www.w3.org/1999/xlink"
     width="600" height="400" viewBox="0 0 600 400">
<defs>
</defs>
<circle cx="300" cy="200" r="180" fill="#e0f7fa" stroke="none" opacity="0.5" />
<rect x="50" y="50" width="500" height="300" fill="#fffde7" stroke="#ffe082" stroke-width="4" opacity="0.7" />
<path d="M393.92304845413264,297.3205080756888 L413.92304845413264,262.6794919243112 L517.8460969082653,322.6794919243112 L497.8460969082653,357.3205080756888 Z" fill="#ff6b6b" stroke="#333" stroke-width="2" opacity="0.85" />
<text x="533.8268590217984" y="355.0" font-size="18" text-anchor="middle" fill="#ff6b6b" font-family="Comic Sans MS" font-weight="bold" opacity="0.9">Max</text>
<text x="533.8268590217984" y="355.0" font-size="14" text-anchor="middle" fill="#333" font-family="Arial" font-weight="bold" opacity="0.8">45.3 m/s</text>
<path d="M186.07695154586736,262.6794919243112 L206.07695154586736,297.3205080756888 L206.07695154586736,297.3205080756888 L186.07695154586736,262.6794919243112 Z" fill="#4ecdc4" stroke="#333" stroke-width="2" opacity="0.85" />
<text x="66.17314097820156" y="355.0" font-size="18" text-anchor="middle" fill="#4ecdc4" font-family="Comic Sans MS" font-weight="bold" opacity="0.9">Min</text>
<text x="170.0961894323342" y="295.0" font-size="14" text-anchor="middle" fill="#333" font-family="Arial" font-weight="bold" opacity="0.8">0.0 m/s</text>
<path d="M320.0,100.0 L280.0,100.0 L280.0,69.24254750883198 L320.0,69.24254750883198 Z" fill="#45b7d1" stroke="#333" stroke-width="2" opacity="0.85" />
<text x="299.99999999999994" y="-50.0" font-size="18" text-anchor="middle" fill="#45b7d1" font-family="Comic Sans MS" font-weight="bold" opacity="0.9">Avg</text>
<text x="300.0" y="39.242547508831976" font-size="14" text-anchor="middle" fill="#333" font-family="Arial" font-weight="bold" opacity="0.8">11.6 m/s</text>
<path d="M 80,350 Q 130,320 180,350" stroke="#90caf9" stroke-width="3" fill="none" opacity="0.6" />
<path d="M 180,350 Q 230,320 280,350" stroke="#90caf9" stroke-width="3" fill="none" opacity="0.6" />
<path d="M 280,350 Q 330,320 380,350" stroke="#90caf9" stroke-width="3" fill="none" opacity="0.6" />
<path d="M 380,350 Q 430,320 480,350" stroke="#90caf9" stroke-width="3" fill="none" opacity="0.6" />
<path d="M 480,350 Q 530,320 580,350" stroke="#90caf9" stroke-width="3" fill="none" opacity="0.6" />
<text x="300" y="60" font-size="32" text-anchor="middle" fill="#333" font-family="Arial" font-weight="bold" opacity="0.95">Wind Speed Abstract</text>
<text x="303" y="63" font-size="32" text-anchor="middle" fill="#b2ebf2" font-family="Arial" font-weight="bold" opacity="0.3">Wind Speed Abstract</text>
</svg>